<svg width="276" height="210" viewBox="0 0 276 210" fill="none" xmlns="http://www.w3.org/2000/svg">
<g clip-path="url(#clip0_354_64)">
<path d="M105.244 6.28204L123.641 21.9872M123.641 21.9872H151.013M123.641 21.9872L114.247 31.7296C112.462 33.5805 111.171 35.8703 110.502 38.3532V38.3532C109.185 43.2436 110.396 48.5033 113.742 52.3054L116.647 55.6073C117.67 56.7697 119.144 57.4359 120.692 57.4359V57.4359C122.53 57.4359 124.24 56.4997 125.231 54.9522L127.254 51.791C129.48 48.3132 129.803 43.948 128.114 40.1801L126.269 36.0644C125.419 34.1691 124.861 32.1562 124.614 30.094L123.641 21.9872ZM151.013 21.9872L169.41 6.28204M151.013 21.9872L163.261 33.3388C167.043 36.8444 168.574 42.1558 167.238 47.1368L166.359 50.4104C165.247 54.5547 161.491 57.4359 157.2 57.4359V57.4359C153.44 57.4359 150.02 55.1798 148.506 51.738V51.738C147.029 48.3807 147.58 44.4419 149.949 41.6419L151.124 40.2529C154.096 36.741 154.9 31.8814 153.218 27.5996L151.013 21.9872ZM74.282 41.7308L97.62 63.7576C108.28 73.8186 122.383 79.4231 137.041 79.4231V79.4231C152.039 79.4231 166.443 73.5561 177.172 63.0762L199.026 41.7308" stroke="#FFFDFD" stroke-width="11.6667" stroke-linecap="round"/>
<path d="M76.0769 72.2436L77.3651 66.5543L77.2525 66.5288L77.1391 66.5078L76.0769 72.2436ZM99.859 77.6283L98.5708 83.3176L98.8634 83.3838L99.1612 83.4197L99.859 77.6283ZM176.59 77.6283L177.248 83.4243L177.427 83.404L177.603 83.3728L176.59 77.6283ZM207.103 72.2436L208.116 77.9882L208.354 77.9463L208.587 77.8849L207.103 72.2436ZM164.962 77.9439C162.658 75.692 158.965 75.7341 156.713 78.0379C154.461 80.3418 154.503 84.035 156.807 86.287L164.962 77.9439ZM176.034 96.9231L171.956 101.095L171.998 101.136L172.041 101.176L176.034 96.9231ZM224.603 102.756C227.824 102.756 230.436 100.145 230.436 96.9231C230.436 93.7015 227.824 91.0898 224.603 91.0898V102.756ZM114.218 79.8719L119.266 82.7946L109.425 76.5474L114.218 79.8719ZM51.8461 87.9488C48.6245 87.9488 46.0128 90.5604 46.0128 93.7821C46.0128 97.0038 48.6245 99.6154 51.8461 99.6154V87.9488ZM62.0508 155.649C59.7891 157.943 59.8157 161.636 62.1101 163.898C64.4045 166.16 68.0979 166.133 70.3595 163.839L62.0508 155.649ZM181.077 128.333L185.382 124.397L185.294 124.301L185.202 124.209L181.077 128.333ZM205.49 163.68C207.664 166.057 211.353 166.223 213.731 164.049C216.109 161.875 216.274 158.185 214.1 155.807L205.49 163.68ZM175.259 163.04C177.576 160.801 177.638 157.108 175.399 154.792C173.16 152.476 169.467 152.413 167.151 154.652L175.259 163.04ZM102.103 158.846L105.527 154.123L98.2519 163.228L102.103 158.846ZM132.167 202.372C132.167 205.594 134.778 208.205 138 208.205C141.222 208.205 143.833 205.594 143.833 202.372H132.167ZM126.999 180.725L123.148 185.107L126.999 180.725ZM148.799 180.506L144.744 176.312L148.799 180.506ZM172.858 120.115L168.734 124.24L172.858 120.115ZM112.867 82.2054L107.819 79.2827L112.867 82.2054ZM94.0874 103.395L90.6398 98.6899L94.0874 103.395ZM37.6991 129.531L36.7289 135.284L37.6991 129.531ZM230.362 132.517L228.809 138.14L230.362 132.517ZM261.734 83.0085L257.691 87.2134L261.734 83.0085ZM256.872 78.3334L252.829 82.5383L256.872 78.3334ZM31.9686 128.565L30.9983 134.317L31.9686 128.565ZM126.673 80.8588L125.975 86.6503L126.673 80.8588ZM147.541 80.9293L146.882 75.1333L147.541 80.9293ZM15.0621 80.3874L10.3581 76.9378L15.0621 80.3874ZM221.293 130.011L219.739 135.633L221.293 130.011ZM196.369 116.014L192.377 120.267L196.369 116.014ZM13.3608 82.7073L8.65678 79.2577L13.3608 82.7073ZM18.0648 86.1569L19.7661 83.837L10.3581 76.9378L8.65678 79.2577L18.0648 86.1569ZM47.426 72.8704L75.0147 77.9795L77.1391 66.5078L49.5503 61.3988L47.426 72.8704ZM74.7888 77.933L98.5708 83.3176L101.147 71.9389L77.3651 66.5543L74.7888 77.933ZM99.1612 83.4197L125.975 86.6503L127.371 75.0674L100.557 71.8368L99.1612 83.4197ZM148.199 86.7253L177.248 83.4243L175.931 71.8322L146.882 75.1333L148.199 86.7253ZM177.603 83.3728L208.116 77.9882L206.089 66.4991L175.576 71.8837L177.603 83.3728ZM208.587 77.8849L221.671 74.4418L218.702 63.1592L205.618 66.6024L208.587 77.8849ZM252.829 82.5383L257.691 87.2134L265.777 78.8037L260.915 74.1286L252.829 82.5383ZM250.612 125.235L249.318 125.779L253.835 136.535L255.129 135.992L250.612 125.235ZM231.916 126.894L222.846 124.388L219.739 135.633L228.809 138.14L231.916 126.894ZM200.362 111.761L180.026 92.6702L172.041 101.176L192.377 120.267L200.362 111.761ZM180.111 92.7516L164.962 77.9439L156.807 86.287L171.956 101.095L180.111 92.7516ZM176.034 102.756H224.603V91.0898H176.034V102.756ZM30.9983 134.317L36.7289 135.284L38.6693 123.779L32.9388 122.813L30.9983 134.317ZM71.7616 126.984L97.535 108.101L90.6398 98.6899L64.8663 117.573L71.7616 126.984ZM117.915 85.1282L119.266 82.7946L109.17 76.9491L107.819 79.2827L117.915 85.1282ZM109.425 76.5474L99.7772 90.4577L109.364 97.1065L119.011 83.1963L109.425 76.5474ZM51.8461 99.6154H104.57V87.9488H51.8461V99.6154ZM70.3595 163.839L101.321 132.428L93.0123 124.238L62.0508 155.649L70.3595 163.839ZM101.677 132.032L105.51 127.359L96.4883 119.961L92.6559 124.635L101.677 132.032ZM168.734 124.24L176.952 132.458L185.202 124.209L176.983 115.99L168.734 124.24ZM176.772 132.27L205.49 163.68L214.1 155.807L185.382 124.397L176.772 132.27ZM102.551 122.5H97.1667V134.167H102.551V122.5ZM96.7179 128.333V157.949H108.385V128.333H96.7179ZM106.59 167.821H167.167V156.154H106.59V167.821ZM177.038 157.949V135.513H165.372V157.949H177.038ZM181.077 122.5H171.205V134.167H181.077V122.5ZM171.205 122.5H102.551V134.167H171.205V122.5ZM177.038 135.513V128.333H165.372V135.513H177.038ZM167.151 154.652L144.744 176.312L152.853 184.7L175.259 163.04L167.151 154.652ZM130.85 176.343L105.953 154.464L98.2519 163.228L123.148 185.107L130.85 176.343ZM98.6786 163.569L134.576 189.595L141.424 180.149L105.527 154.123L98.6786 163.569ZM143.833 202.372V184.872H132.167V202.372H143.833ZM123.148 185.107C127.254 188.715 132.534 190.705 138 190.705V179.039C135.368 179.039 132.827 178.08 130.85 176.343L123.148 185.107ZM144.744 176.312C142.935 178.061 140.517 179.039 138 179.039V190.705C143.542 190.705 148.868 188.552 152.853 184.7L144.744 176.312ZM138.535 111.731C149.861 111.731 160.724 116.23 168.734 124.24L176.983 115.99C166.786 105.793 152.956 100.064 138.535 100.064V111.731ZM107.819 79.2827C105.623 83.0743 103.065 86.6437 100.18 89.9408L108.961 97.6234C112.343 93.7579 115.342 89.5732 117.915 85.1282L107.819 79.2827ZM97.535 108.101C101.716 105.038 105.547 101.524 108.961 97.6234L100.18 89.9408C97.3305 93.198 94.131 96.132 90.6398 98.6899L97.535 108.101ZM36.7289 135.284C49.048 137.361 61.6838 134.368 71.7616 126.984L64.8663 117.573C57.3303 123.095 47.8814 125.333 38.6693 123.779L36.7289 135.284ZM249.318 125.779C243.807 128.093 237.677 128.486 231.916 126.894L228.809 138.14C237.095 140.429 245.91 139.864 253.835 136.535L249.318 125.779ZM262.905 113.053C260.537 118.551 256.131 122.917 250.612 125.235L255.129 135.992C263.431 132.505 270.058 125.938 273.62 117.669L262.905 113.053ZM167.167 167.821C172.619 167.821 177.038 163.401 177.038 157.949H165.372C165.372 156.957 166.175 156.154 167.167 156.154V167.821ZM257.691 87.2134C264.643 93.8986 266.721 104.195 262.905 113.053L273.62 117.669C279.36 104.345 276.234 88.8588 265.777 78.8037L257.691 87.2134ZM96.7179 157.949C96.7179 163.401 101.138 167.821 106.59 167.821V156.154C107.581 156.154 108.385 156.957 108.385 157.949H96.7179ZM221.671 74.4418C232.758 71.5241 244.565 74.5921 252.829 82.5383L260.915 74.1286C249.719 63.3628 233.723 59.2063 218.702 63.1592L221.671 74.4418ZM5.48867 115.316C10.444 125.381 19.9355 132.451 30.9983 134.317L32.9388 122.813C25.5737 121.57 19.2547 116.864 15.9557 110.163L5.48867 115.316ZM125.975 86.6503C133.355 87.5394 140.813 87.5646 148.199 86.7253L146.882 75.1333C140.398 75.8701 133.85 75.848 127.371 75.0674L125.975 86.6503ZM105.51 127.359C113.622 117.466 125.741 111.731 138.535 111.731V100.064C122.246 100.064 106.816 107.366 96.4883 119.961L105.51 127.359ZM19.7661 83.837C26.1174 75.1762 36.8654 70.9148 47.426 72.8704L49.5503 61.3988C34.5867 58.6278 19.3574 64.6659 10.3581 76.9378L19.7661 83.837ZM222.846 124.388C214.438 122.065 206.722 117.731 200.362 111.761L192.377 120.267C200.116 127.532 209.507 132.806 219.739 135.633L222.846 124.388ZM8.65678 79.2577C0.964193 89.7476 -0.256851 103.645 5.48867 115.316L15.9557 110.163C12.1306 102.393 12.9435 93.1406 18.0648 86.1569L8.65678 79.2577Z" fill="#FFFDFD"/>
</g>
<defs>
<clipPath id="clip0_354_64">
<rect width="275.513" height="210" fill="white" transform="translate(0.243591)"/>
</clipPath>
</defs>
</svg>
