<svg width="821" height="210" viewBox="0 0 821 210" fill="none" xmlns="http://www.w3.org/2000/svg">
<g clip-path="url(#clip0_354_72)">
<g clip-path="url(#clip1_354_72)">
<path d="M105 6.28204L123.397 21.9872M123.397 21.9872H150.769M123.397 21.9872L114.003 31.7296C112.218 33.5805 110.927 35.8703 110.258 38.3532V38.3532C108.942 43.2436 110.152 48.5033 113.498 52.3054L116.404 55.6073C117.427 56.7697 118.9 57.4359 120.449 57.4359V57.4359C122.286 57.4359 123.997 56.4997 124.987 54.9522L127.01 51.791C129.236 48.3132 129.559 43.948 127.87 40.1801L126.025 36.0644C125.176 34.1691 124.618 32.1562 124.37 30.094L123.397 21.9872ZM150.769 21.9872L169.167 6.28204M150.769 21.9872L163.017 33.3388C166.799 36.8444 168.33 42.1558 166.994 47.1368L166.116 50.4104C165.004 54.5547 161.248 57.4359 156.957 57.4359V57.4359C153.197 57.4359 149.777 55.1798 148.262 51.738V51.738C146.785 48.3807 147.336 44.4419 149.705 41.6419L150.881 40.2529C153.852 36.741 154.656 31.8814 152.974 27.5996L150.769 21.9872ZM74.0385 41.7308L97.3764 63.7576C108.036 73.8186 122.14 79.4231 136.798 79.4231V79.4231C151.796 79.4231 166.199 73.5561 176.928 63.0762L198.782 41.7308" stroke="#FFFDFD" stroke-width="11.6667" stroke-linecap="round"/>
<path d="M75.8333 72.2436L77.1215 66.5543L77.009 66.5288L76.8955 66.5078L75.8333 72.2436ZM99.6154 77.6283L98.3272 83.3176L98.6198 83.3838L98.9176 83.4197L99.6154 77.6283ZM176.346 77.6283L177.005 83.4243L177.183 83.404L177.36 83.3728L176.346 77.6283ZM206.859 72.2436L207.873 77.9882L208.11 77.9463L208.344 77.8849L206.859 72.2436ZM164.719 77.9439C162.415 75.692 158.721 75.7341 156.47 78.0379C154.218 80.3418 154.26 84.035 156.564 86.287L164.719 77.9439ZM175.79 96.9231L171.713 101.095L171.755 101.136L171.798 101.176L175.79 96.9231ZM224.359 102.756C227.581 102.756 230.192 100.145 230.192 96.9231C230.192 93.7015 227.581 91.0898 224.359 91.0898V102.756ZM113.974 79.8719L119.023 82.7946L109.181 76.5474L113.974 79.8719ZM51.6026 87.9488C48.3809 87.9488 45.7692 90.5604 45.7692 93.7821C45.7692 97.0038 48.3809 99.6154 51.6026 99.6154V87.9488ZM61.8072 155.649C59.5456 157.943 59.5722 161.636 61.8665 163.898C64.1609 166.16 67.8543 166.133 70.1159 163.839L61.8072 155.649ZM180.833 128.333L185.139 124.397L185.05 124.301L184.958 124.209L180.833 128.333ZM205.246 163.68C207.42 166.057 211.11 166.223 213.487 164.049C215.865 161.875 216.03 158.185 213.856 155.807L205.246 163.68ZM175.016 163.04C177.332 160.801 177.395 157.108 175.156 154.792C172.917 152.476 169.224 152.413 166.907 154.652L175.016 163.04ZM101.859 158.846L105.283 154.123L98.0083 163.228L101.859 158.846ZM131.923 202.372C131.923 205.594 134.535 208.205 137.756 208.205C140.978 208.205 143.59 205.594 143.59 202.372H131.923ZM126.756 180.725L122.905 185.107L126.756 180.725ZM148.555 180.506L144.501 176.312L148.555 180.506ZM172.615 120.115L168.49 124.24L172.615 120.115ZM112.623 82.2054L107.575 79.2827L112.623 82.2054ZM93.8438 103.395L90.3962 98.6899L93.8438 103.395ZM37.4555 129.531L36.4853 135.284L37.4555 129.531ZM230.119 132.517L228.565 138.14L230.119 132.517ZM261.49 83.0085L257.447 87.2134L261.49 83.0085ZM256.628 78.3334L252.585 82.5383L256.628 78.3334ZM31.725 128.565L30.7548 134.317L31.725 128.565ZM126.429 80.8588L125.731 86.6503L126.429 80.8588ZM147.297 80.9293L146.638 75.1333L147.297 80.9293ZM14.8185 80.3874L10.1145 76.9378L14.8185 80.3874ZM221.049 130.011L219.495 135.633L221.049 130.011ZM196.126 116.014L192.133 120.267L196.126 116.014ZM13.1172 82.7073L8.41322 79.2577L13.1172 82.7073ZM17.8213 86.1569L19.5226 83.837L10.1145 76.9378L8.41322 79.2577L17.8213 86.1569ZM47.1824 72.8704L74.7712 77.9795L76.8955 66.5078L49.3068 61.3988L47.1824 72.8704ZM74.5452 77.933L98.3272 83.3176L100.904 71.9389L77.1215 66.5543L74.5452 77.933ZM98.9176 83.4197L125.731 86.6503L127.127 75.0674L100.313 71.8368L98.9176 83.4197ZM147.956 86.7253L177.005 83.4243L175.688 71.8322L146.638 75.1333L147.956 86.7253ZM177.36 83.3728L207.873 77.9882L205.845 66.4991L175.332 71.8837L177.36 83.3728ZM208.344 77.8849L221.428 74.4418L218.458 63.1592L205.374 66.6024L208.344 77.8849ZM252.585 82.5383L257.447 87.2134L265.534 78.8037L260.671 74.1286L252.585 82.5383ZM250.368 125.235L249.074 125.779L253.592 136.535L254.886 135.992L250.368 125.235ZM231.673 126.894L222.603 124.388L219.495 135.633L228.565 138.14L231.673 126.894ZM200.118 111.761L179.783 92.6702L171.798 101.176L192.133 120.267L200.118 111.761ZM179.868 92.7516L164.719 77.9439L156.564 86.287L171.713 101.095L179.868 92.7516ZM175.79 102.756H224.359V91.0898H175.79V102.756ZM30.7548 134.317L36.4853 135.284L38.4258 123.779L32.6952 122.813L30.7548 134.317ZM71.518 126.984L97.2914 108.101L90.3962 98.6899L64.6228 117.573L71.518 126.984ZM117.672 85.1282L119.023 82.7946L108.926 76.9491L107.575 79.2827L117.672 85.1282ZM109.181 76.5474L99.5336 90.4577L109.12 97.1065L118.768 83.1963L109.181 76.5474ZM51.6026 99.6154H104.327V87.9488H51.6026V99.6154ZM70.1159 163.839L101.077 132.428L92.7687 124.238L61.8072 155.649L70.1159 163.839ZM101.434 132.032L105.266 127.359L96.2447 119.961L92.4124 124.635L101.434 132.032ZM168.49 124.24L176.709 132.458L184.958 124.209L176.74 115.99L168.49 124.24ZM176.528 132.27L205.246 163.68L213.856 155.807L185.139 124.397L176.528 132.27ZM102.308 122.5H96.9231V134.167H102.308V122.5ZM96.4744 128.333V157.949H108.141V128.333H96.4744ZM106.346 167.821H166.923V156.154H106.346V167.821ZM176.795 157.949V135.513H165.128V157.949H176.795ZM180.833 122.5H170.962V134.167H180.833V122.5ZM170.962 122.5H102.308V134.167H170.962V122.5ZM176.795 135.513V128.333H165.128V135.513H176.795ZM166.907 154.652L144.501 176.312L152.609 184.7L175.016 163.04L166.907 154.652ZM130.606 176.343L105.71 154.464L98.0083 163.228L122.905 185.107L130.606 176.343ZM98.435 163.569L134.332 189.595L141.18 180.149L105.283 154.123L98.435 163.569ZM143.59 202.372V184.872H131.923V202.372H143.59ZM122.905 185.107C127.011 188.715 132.29 190.705 137.756 190.705V179.039C135.125 179.039 132.583 178.08 130.606 176.343L122.905 185.107ZM144.501 176.312C142.691 178.061 140.273 179.039 137.756 179.039V190.705C143.299 190.705 148.625 188.552 152.609 184.7L144.501 176.312ZM138.291 111.731C149.618 111.731 160.481 116.23 168.49 124.24L176.74 115.99C166.542 105.793 152.712 100.064 138.291 100.064V111.731ZM107.575 79.2827C105.38 83.0743 102.822 86.6437 99.9369 89.9408L108.717 97.6234C112.099 93.7579 115.098 89.5732 117.672 85.1282L107.575 79.2827ZM97.2914 108.101C101.472 105.038 105.304 101.524 108.717 97.6234L99.9369 89.9408C97.0869 93.198 93.8875 96.132 90.3962 98.6899L97.2914 108.101ZM36.4853 135.284C48.8044 137.361 61.4403 134.368 71.518 126.984L64.6228 117.573C57.0868 123.095 47.6379 125.333 38.4258 123.779L36.4853 135.284ZM249.074 125.779C243.563 128.093 237.434 128.486 231.673 126.894L228.565 138.14C236.851 140.429 245.666 139.864 253.592 136.535L249.074 125.779ZM262.662 113.053C260.293 118.551 255.887 122.917 250.368 125.235L254.886 135.992C263.187 132.505 269.814 125.938 273.377 117.669L262.662 113.053ZM166.923 167.821C172.375 167.821 176.795 163.401 176.795 157.949H165.128C165.128 156.957 165.932 156.154 166.923 156.154V167.821ZM257.447 87.2134C264.4 93.8986 266.478 104.195 262.662 113.053L273.377 117.669C279.116 104.345 275.991 88.8588 265.534 78.8037L257.447 87.2134ZM96.4744 157.949C96.4744 163.401 100.894 167.821 106.346 167.821V156.154C107.337 156.154 108.141 156.957 108.141 157.949H96.4744ZM221.428 74.4418C232.515 71.5241 244.321 74.5921 252.585 82.5383L260.671 74.1286C249.475 63.3628 233.48 59.2063 218.458 63.1592L221.428 74.4418ZM5.24511 115.316C10.2004 125.381 19.6919 132.451 30.7548 134.317L32.6952 122.813C25.3301 121.57 19.0111 116.864 15.7121 110.163L5.24511 115.316ZM125.731 86.6503C133.111 87.5394 140.57 87.5646 147.956 86.7253L146.638 75.1333C140.154 75.8701 133.606 75.848 127.127 75.0674L125.731 86.6503ZM105.266 127.359C113.378 117.466 125.498 111.731 138.291 111.731V100.064C122.003 100.064 106.573 107.366 96.2447 119.961L105.266 127.359ZM19.5226 83.837C25.8738 75.1762 36.6219 70.9148 47.1824 72.8704L49.3068 61.3988C34.3432 58.6278 19.1139 64.6659 10.1145 76.9378L19.5226 83.837ZM222.603 124.388C214.195 122.065 206.478 117.731 200.118 111.761L192.133 120.267C199.873 127.532 209.263 132.806 219.495 135.633L222.603 124.388ZM8.41322 79.2577C0.720633 89.7476 -0.500412 103.645 5.24511 115.316L15.7121 110.163C11.887 102.393 12.6999 93.1406 17.8213 86.1569L8.41322 79.2577Z" fill="#FFFDFD"/>
</g>
<path d="M295.822 145V63.138H327.786C338.034 63.138 345.984 65.4967 351.637 70.214C357.33 74.8907 360.177 81.1737 360.177 89.063C360.177 96.7897 357.33 102.991 351.637 107.668C345.984 112.304 338.034 114.622 327.786 114.622H315.342V145H295.822ZM338.522 145L318.575 105.472H339.193L364.081 145H338.522ZM315.342 101.934H325.59C330.429 101.934 334.048 100.938 336.448 98.945C338.888 96.9117 340.108 94.3293 340.108 91.198C340.108 87.9447 339.071 85.281 336.997 83.207C334.963 81.0923 331.893 80.035 327.786 80.035H315.342V101.934ZM402.301 146.952C397.258 146.952 392.521 145.651 388.088 143.048C383.655 140.445 380.056 136.724 377.291 131.885C374.566 127.046 373.204 121.312 373.204 114.683C373.204 108.054 374.566 102.381 377.291 97.664C380.016 92.906 383.594 89.2663 388.027 86.745C392.46 84.2237 397.218 82.963 402.301 82.963C407.344 82.963 411.736 83.9797 415.477 86.013C419.218 88.0057 422.228 90.71 424.505 94.126C426.823 97.542 428.328 101.405 429.019 105.716C429.751 109.986 429.609 114.398 428.592 118.953H388.637V109.071H414.318L411.512 110.901C411.634 109.478 411.573 108.034 411.329 106.57C411.126 105.106 410.699 103.764 410.048 102.544C409.397 101.283 408.462 100.287 407.242 99.555C406.063 98.7823 404.538 98.396 402.667 98.396C400.593 98.396 398.783 98.9043 397.238 99.921C395.733 100.897 394.554 102.341 393.7 104.252C392.887 106.123 392.48 108.42 392.48 111.145V118.831C392.48 121.393 392.846 123.609 393.578 125.48C394.31 127.351 395.388 128.815 396.811 129.872C398.275 130.889 400.105 131.397 402.301 131.397C404.09 131.397 405.656 131.031 406.998 130.299C408.34 129.567 409.275 128.408 409.804 126.822H429.202C428.592 130.563 427.087 133.959 424.688 137.009C422.329 140.059 419.239 142.479 415.416 144.268C411.634 146.057 407.262 146.952 402.301 146.952ZM469.627 146.952C464.381 146.952 459.501 145.63 454.987 142.987C450.514 140.344 446.894 136.623 444.129 131.824C441.404 127.025 440.042 121.413 440.042 114.988C440.042 107.953 441.404 102.076 444.129 97.359C446.894 92.601 450.514 89.0223 454.987 86.623C459.501 84.183 464.381 82.963 469.627 82.963C474.06 82.963 477.923 83.7153 481.217 85.22C484.552 86.7247 487.317 88.697 489.513 91.137C491.709 93.577 493.336 96.261 494.393 99.189C495.491 102.117 496.04 104.984 496.04 107.79L476.52 107.607C476.235 105.858 475.524 104.272 474.385 102.849C473.287 101.385 471.66 100.653 469.505 100.653C467.797 100.653 466.17 101.1 464.625 101.995C463.12 102.849 461.88 104.313 460.904 106.387C459.969 108.461 459.501 111.328 459.501 114.988C459.501 118.567 459.969 121.393 460.904 123.467C461.88 125.541 463.12 127.005 464.625 127.859C466.17 128.713 467.797 129.14 469.505 129.14C472.27 129.14 474.121 128.51 475.056 127.249C476.032 125.948 476.52 124.321 476.52 122.369H496.04C496.04 126.68 495.084 130.706 493.173 134.447C491.262 138.188 488.354 141.218 484.45 143.536C480.587 145.813 475.646 146.952 469.627 146.952ZM535.5 146.952C530.458 146.952 525.72 145.651 521.287 143.048C516.855 140.445 513.256 136.724 510.49 131.885C507.766 127.046 506.403 121.312 506.403 114.683C506.403 108.054 507.766 102.381 510.49 97.664C513.215 92.906 516.794 89.2663 521.226 86.745C525.659 84.2237 530.417 82.963 535.5 82.963C540.543 82.963 544.935 83.9797 548.676 86.013C552.418 88.0057 555.427 90.71 557.704 94.126C560.022 97.542 561.527 101.405 562.218 105.716C562.95 109.986 562.808 114.398 561.791 118.953H521.836V109.071H547.517L544.711 110.901C544.833 109.478 544.772 108.034 544.528 106.57C544.325 105.106 543.898 103.764 543.247 102.544C542.597 101.283 541.661 100.287 540.441 99.555C539.262 98.7823 537.737 98.396 535.866 98.396C533.792 98.396 531.983 98.9043 530.437 99.921C528.933 100.897 527.753 102.341 526.899 104.252C526.086 106.123 525.679 108.42 525.679 111.145V118.831C525.679 121.393 526.045 123.609 526.777 125.48C527.509 127.351 528.587 128.815 530.01 129.872C531.474 130.889 533.304 131.397 535.5 131.397C537.29 131.397 538.855 131.031 540.197 130.299C541.539 129.567 542.475 128.408 543.003 126.822H562.401C561.791 130.563 560.287 133.959 557.887 137.009C555.529 140.059 552.438 142.479 548.615 144.268C544.833 146.057 540.462 146.952 535.5 146.952ZM578.304 145V63.138H613.745C620.374 63.138 625.864 64.114 630.215 66.066C634.567 67.9773 637.82 70.6003 639.975 73.935C642.171 77.229 643.269 80.9703 643.269 85.159C643.269 89.673 641.968 93.4957 639.365 96.627C636.803 99.7583 633.428 102.036 629.239 103.459C632.045 104.191 634.607 105.309 636.925 106.814C639.243 108.319 641.094 110.311 642.476 112.792C643.9 115.232 644.611 118.262 644.611 121.881C644.611 124.28 644.164 126.822 643.269 129.506C642.375 132.19 640.809 134.711 638.572 137.07C636.336 139.388 633.225 141.299 629.239 142.804C625.254 144.268 620.171 145 613.989 145H578.304ZM597.824 127.92H613.379C616.673 127.92 619.174 127.31 620.882 126.09C622.59 124.829 623.444 123.02 623.444 120.661C623.444 118.302 622.631 116.411 621.004 114.988C619.418 113.565 616.877 112.853 613.379 112.853H597.824V127.92ZM597.824 80.035V95.651H612.891C616.633 95.651 619.296 94.9393 620.882 93.516C622.468 92.0927 623.261 90.2423 623.261 87.965C623.261 85.769 622.468 83.8983 620.882 82.353C619.337 80.8077 616.714 80.035 613.013 80.035H597.824ZM684.784 146.952C679.741 146.952 675.003 145.651 670.571 143.048C666.138 140.445 662.539 136.724 659.774 131.885C657.049 127.046 655.687 121.312 655.687 114.683C655.687 108.054 657.049 102.381 659.774 97.664C662.498 92.906 666.077 89.2663 670.51 86.745C674.942 84.2237 679.7 82.963 684.784 82.963C689.826 82.963 694.218 83.9797 697.96 86.013C701.701 88.0057 704.71 90.71 706.988 94.126C709.306 97.542 710.81 101.405 711.502 105.716C712.234 109.986 712.091 114.398 711.075 118.953H671.12V109.071H696.801L693.995 110.901C694.117 109.478 694.056 108.034 693.812 106.57C693.608 105.106 693.181 103.764 692.531 102.544C691.88 101.283 690.945 100.287 689.725 99.555C688.545 98.7823 687.02 98.396 685.15 98.396C683.076 98.396 681.266 98.9043 679.721 99.921C678.216 100.897 677.037 102.341 676.183 104.252C675.369 106.123 674.963 108.42 674.963 111.145V118.831C674.963 121.393 675.329 123.609 676.061 125.48C676.793 127.351 677.87 128.815 679.294 129.872C680.758 130.889 682.588 131.397 684.784 131.397C686.573 131.397 688.139 131.031 689.481 130.299C690.823 129.567 691.758 128.408 692.287 126.822H711.685C711.075 130.563 709.57 133.959 707.171 137.009C704.812 140.059 701.721 142.479 697.899 144.268C694.117 146.057 689.745 146.952 684.784 146.952ZM751.621 146.952C746.579 146.952 741.841 145.651 737.408 143.048C732.976 140.445 729.377 136.724 726.611 131.885C723.887 127.046 722.524 121.312 722.524 114.683C722.524 108.054 723.887 102.381 726.611 97.664C729.336 92.906 732.915 89.2663 737.347 86.745C741.78 84.2237 746.538 82.963 751.621 82.963C756.664 82.963 761.056 83.9797 764.797 86.013C768.539 88.0057 771.548 90.71 773.825 94.126C776.143 97.542 777.648 101.405 778.339 105.716C779.071 109.986 778.929 114.398 777.912 118.953H737.957V109.071H763.638L760.832 110.901C760.954 109.478 760.893 108.034 760.649 106.57C760.446 105.106 760.019 103.764 759.368 102.544C758.718 101.283 757.782 100.287 756.562 99.555C755.383 98.7823 753.858 98.396 751.987 98.396C749.913 98.396 748.104 98.9043 746.558 99.921C745.054 100.897 743.874 102.341 743.02 104.252C742.207 106.123 741.8 108.42 741.8 111.145V118.831C741.8 121.393 742.166 123.609 742.898 125.48C743.63 127.351 744.708 128.815 746.131 129.872C747.595 130.889 749.425 131.397 751.621 131.397C753.411 131.397 754.976 131.031 756.318 130.299C757.66 129.567 758.596 128.408 759.124 126.822H778.522C777.912 130.563 776.408 133.959 774.008 137.009C771.65 140.059 768.559 142.479 764.736 144.268C760.954 146.057 756.583 146.952 751.621 146.952Z" fill="white"/>
</g>
<defs>
<clipPath id="clip0_354_72">
<rect width="820.513" height="210" rx="90" fill="white"/>
</clipPath>
<clipPath id="clip1_354_72">
<rect width="275.513" height="210" fill="white"/>
</clipPath>
</defs>
</svg>
